<svg width="101" height="33" viewBox="0 0 101 33" fill="none" xmlns="http://www.w3.org/2000/svg">
<path d="M3 15.192C3.768 15.128 4.344 14.92 4.728 14.568C5.128 14.216 5.328 13.744 5.328 13.152C5.328 12.48 5.256 11.512 5.112 10.248C4.952 8.744 4.872 7.648 4.872 6.96C4.872 5.712 5.24 4.744 5.976 4.056C6.728 3.352 7.72 3 8.952 3H10.608V5.832H9.6C8.608 5.832 8.112 6.304 8.112 7.248C8.112 7.696 8.176 8.592 8.304 9.936C8.32 10.096 8.36 10.552 8.424 11.304C8.488 12.04 8.52 12.696 8.52 13.272C8.52 14.12 8.312 14.824 7.896 15.384C7.48 15.944 6.848 16.304 6 16.464V16.512C6.848 16.688 7.48 17.056 7.896 17.616C8.312 18.16 8.52 18.864 8.52 19.728C8.52 20.272 8.488 20.92 8.424 21.672C8.36 22.408 8.32 22.872 8.304 23.064C8.176 24.408 8.112 25.296 8.112 25.728C8.112 26.224 8.232 26.584 8.472 26.808C8.712 27.032 9.088 27.144 9.6 27.144H10.608V30H8.952C7.72 30 6.728 29.648 5.976 28.944C5.24 28.256 4.872 27.288 4.872 26.04C4.872 25.336 4.952 24.232 5.112 22.728C5.256 21.464 5.328 20.504 5.328 19.848C5.328 19.256 5.128 18.784 4.728 18.432C4.344 18.08 3.768 17.872 3 17.808V15.192Z" fill="#5E17EB"/>
<path d="M21.48 25.272L16.968 19.608V25.272H13.608V7.512H16.968V17.616L21.432 11.976H25.8L19.944 18.648L25.848 25.272H21.48Z" fill="white"/>
<path d="M26.7596 18.576C26.7596 17.232 27.0236 16.04 27.5516 15C28.0956 13.96 28.8236 13.16 29.7356 12.6C30.6636 12.04 31.6956 11.76 32.8316 11.76C33.8236 11.76 34.6876 11.96 35.4236 12.36C36.1756 12.76 36.7756 13.264 37.2236 13.872V11.976H40.6076V25.272H37.2236V23.328C36.7916 23.952 36.1916 24.472 35.4236 24.888C34.6716 25.288 33.7996 25.488 32.8076 25.488C31.6876 25.488 30.6636 25.2 29.7356 24.624C28.8236 24.048 28.0956 23.24 27.5516 22.2C27.0236 21.144 26.7596 19.936 26.7596 18.576ZM37.2236 18.624C37.2236 17.808 37.0636 17.112 36.7436 16.536C36.4236 15.944 35.9916 15.496 35.4476 15.192C34.9036 14.872 34.3196 14.712 33.6956 14.712C33.0716 14.712 32.4956 14.864 31.9676 15.168C31.4396 15.472 31.0076 15.92 30.6716 16.512C30.3516 17.088 30.1916 17.776 30.1916 18.576C30.1916 19.376 30.3516 20.08 30.6716 20.688C31.0076 21.28 31.4396 21.736 31.9676 22.056C32.5116 22.376 33.0876 22.536 33.6956 22.536C34.3196 22.536 34.9036 22.384 35.4476 22.08C35.9916 21.76 36.4236 21.312 36.7436 20.736C37.0636 20.144 37.2236 19.44 37.2236 18.624Z" fill="white"/>
<path d="M43.0253 18.576C43.0253 17.232 43.2893 16.04 43.8173 15C44.3613 13.96 45.0973 13.16 46.0253 12.6C46.9533 12.04 47.9853 11.76 49.1213 11.76C49.9853 11.76 50.8093 11.952 51.5933 12.336C52.3773 12.704 53.0013 13.2 53.4653 13.824V7.512H56.8733V25.272H53.4653V23.304C53.0493 23.96 52.4652 24.488 51.7132 24.888C50.9612 25.288 50.0893 25.488 49.0973 25.488C47.9773 25.488 46.9533 25.2 46.0253 24.624C45.0973 24.048 44.3613 23.24 43.8173 22.2C43.2893 21.144 43.0253 19.936 43.0253 18.576ZM53.4893 18.624C53.4893 17.808 53.3293 17.112 53.0093 16.536C52.6893 15.944 52.2572 15.496 51.7132 15.192C51.1692 14.872 50.5853 14.712 49.9613 14.712C49.3373 14.712 48.7613 14.864 48.2333 15.168C47.7053 15.472 47.2732 15.92 46.9372 16.512C46.6172 17.088 46.4573 17.776 46.4573 18.576C46.4573 19.376 46.6172 20.08 46.9372 20.688C47.2732 21.28 47.7053 21.736 48.2333 22.056C48.7773 22.376 49.3533 22.536 49.9613 22.536C50.5853 22.536 51.1692 22.384 51.7132 22.08C52.2572 21.76 52.6893 21.312 53.0093 20.736C53.3293 20.144 53.4893 19.44 53.4893 18.624Z" fill="white"/>
<path d="M66.0589 25.488C64.7789 25.488 63.6269 25.208 62.6029 24.648C61.5789 24.072 60.7709 23.264 60.1789 22.224C59.6029 21.184 59.3149 19.984 59.3149 18.624C59.3149 17.264 59.6109 16.064 60.2029 15.024C60.8109 13.984 61.6349 13.184 62.6749 12.624C63.7149 12.048 64.8749 11.76 66.1549 11.76C67.4349 11.76 68.5949 12.048 69.6349 12.624C70.6749 13.184 71.4909 13.984 72.0829 15.024C72.6909 16.064 72.9949 17.264 72.9949 18.624C72.9949 19.984 72.6829 21.184 72.0589 22.224C71.4509 23.264 70.6189 24.072 69.5629 24.648C68.5229 25.208 67.3549 25.488 66.0589 25.488ZM66.0589 22.56C66.6669 22.56 67.2349 22.416 67.7629 22.128C68.3069 21.824 68.7389 21.376 69.0589 20.784C69.3789 20.192 69.5389 19.472 69.5389 18.624C69.5389 17.36 69.2029 16.392 68.5309 15.72C67.8749 15.032 67.0669 14.688 66.1069 14.688C65.1469 14.688 64.3389 15.032 63.6829 15.72C63.0429 16.392 62.7229 17.36 62.7229 18.624C62.7229 19.888 63.0349 20.864 63.6589 21.552C64.2989 22.224 65.0989 22.56 66.0589 22.56Z" fill="white"/>
<path d="M74.5956 18.576C74.5956 17.232 74.8596 16.04 75.3876 15C75.9316 13.96 76.6596 13.16 77.5716 12.6C78.4996 12.04 79.5316 11.76 80.6676 11.76C81.6596 11.76 82.5236 11.96 83.2596 12.36C84.0116 12.76 84.6116 13.264 85.0596 13.872V11.976H88.4436V25.272H85.0596V23.328C84.6276 23.952 84.0276 24.472 83.2596 24.888C82.5076 25.288 81.6356 25.488 80.6436 25.488C79.5236 25.488 78.4996 25.2 77.5716 24.624C76.6596 24.048 75.9316 23.24 75.3876 22.2C74.8596 21.144 74.5956 19.936 74.5956 18.576ZM85.0596 18.624C85.0596 17.808 84.8996 17.112 84.5796 16.536C84.2596 15.944 83.8276 15.496 83.2836 15.192C82.7396 14.872 82.1556 14.712 81.5316 14.712C80.9076 14.712 80.3316 14.864 79.8036 15.168C79.2756 15.472 78.8436 15.92 78.5076 16.512C78.1876 17.088 78.0276 17.776 78.0276 18.576C78.0276 19.376 78.1876 20.08 78.5076 20.688C78.8436 21.28 79.2756 21.736 79.8036 22.056C80.3476 22.376 80.9236 22.536 81.5316 22.536C82.1556 22.536 82.7396 22.384 83.2836 22.08C83.8276 21.76 84.2596 21.312 84.5796 20.736C84.8996 20.144 85.0596 19.44 85.0596 18.624Z" fill="white"/>
<path d="M99.0516 17.808C98.2836 17.872 97.6996 18.08 97.2996 18.432C96.9156 18.784 96.7236 19.256 96.7236 19.848C96.7236 20.504 96.7956 21.464 96.9396 22.728C97.0996 24.232 97.1796 25.336 97.1796 26.04C97.1796 27.288 96.8036 28.256 96.0516 28.944C95.3156 29.648 94.3316 30 93.0996 30H91.4436V27.144H92.4516C92.9636 27.144 93.3396 27.032 93.5796 26.808C93.8196 26.584 93.9396 26.224 93.9396 25.728C93.9396 25.296 93.8756 24.408 93.7476 23.064C93.7316 22.872 93.6916 22.408 93.6276 21.672C93.5636 20.92 93.5316 20.272 93.5316 19.728C93.5316 18.864 93.7396 18.16 94.1556 17.616C94.5716 17.056 95.2036 16.688 96.0516 16.512V16.464C95.2036 16.304 94.5716 15.944 94.1556 15.384C93.7396 14.824 93.5316 14.12 93.5316 13.272C93.5316 12.696 93.5636 12.04 93.6276 11.304C93.6916 10.552 93.7316 10.096 93.7476 9.936C93.8756 8.592 93.9396 7.696 93.9396 7.248C93.9396 6.304 93.4436 5.832 92.4516 5.832H91.4436V3H93.0996C94.3316 3 95.3156 3.352 96.0516 4.056C96.8036 4.744 97.1796 5.712 97.1796 6.96C97.1796 7.648 97.0996 8.744 96.9396 10.248C96.7956 11.512 96.7236 12.48 96.7236 13.152C96.7236 13.744 96.9156 14.216 97.2996 14.568C97.6996 14.92 98.2836 15.128 99.0516 15.192V17.808Z" fill="#5E17EB"/>
</svg>
